<svg xmlns="http://www.w3.org/2000/svg" width="800" height="800" fill="none" viewBox="0 0 24 24"><path fill="#f9a8d4" fill-rule="evenodd" d="M21 8c0-1.65685-1.3431-3-3-3h-8C8.34315 5 7 6.34315 7 8v12c0 1.6569 1.34315 3 3 3h8c1.6569 0 3-1.3431 3-3V8Zm-2 0c0-.55228-.4477-1-1-1h-8c-.55228 0-1 .44772-1 1v12c0 .5523.44772 1 1 1h8c.5523 0 1-.4477 1-1V8Z" clip-rule="evenodd"/><path fill="#be185d" d="M6 3h10c.5523 0 1-.44772 1-1s-.4477-1-1-1H6C4.34315 1 3 2.34315 3 4v14c0 .5523.44772 1 1 1s1-.4477 1-1V4c0-.55228.44772-1 1-1Z"/></svg>