<svg xmlns="http://www.w3.org/2000/svg" width="800" height="800" fill="#7e22ce" viewBox="0 0 24 24"><path d="M20 6.5279775V19.5c0 1.3807119-1.1192881 2.5-2.5 2.5h-11C5.1192881 22 4 20.8807119 4 19.5v-15C4 3.1192881 5.1192881 2 6.5 2h8.9720225c.1327463-.0084195.2709238.0358395.3815309.1464466l4 4c.1106071.1106071.1548661.2487847.1464466.3815309ZM15 3H6.5C5.6715729 3 5 3.6715729 5 4.5v15c0 .8284271.6715729 1.5 1.5 1.5h11c.8284271 0 1.5-.6715729 1.5-1.5V7h-3.5c-.2761424 0-.5-.2238576-.5-.5V3Zm1 .7071068V6h2.2928932L16 3.7071068Zm-4 12.5857864 2.1464466-2.1464466c.1952622-.1952621.5118446-.1952621.7071068 0 .1952621.1952622.1952621.5118446 0 .7071068l-2.9337265 2.9337265c-.0891066.1374188-.24385.2283299-.4198269.2283299s-.3307203-.0909111-.4198269-.2283299l-2.9337265-2.9337265c-.1952621-.1952622-.1952621-.5118446 0-.7071068.1952622-.1952621.5118446-.1952621.7071068 0L11 16.2928932V9.5c0-.2761424.2238576-.5.5-.5s.5.2238576.5.5v6.7928932Z"/></svg>