
    <svg xmlns="http://www.w3.org/2000/svg" width="200" height="200" viewBox="0 0 200 200">

        <defs>
            <linearGradient id="grad1" x1="0%" y1="0%" x2="100%" y2="100%">
                <stop offset="0%" style="stop-color:#adb5bd;stop-opacity:1" />
                <stop offset="50%" style="stop-color:#6c757d;stop-opacity:1" />
                <stop offset="100%" style="stop-color:#495057;stop-opacity:1" />
            </linearGradient>
        </defs>


        <g transform="skewX(-10) translate(20, 20) scale(0.4)">
            <path
                fill="url(#grad1)"
                stroke="#00"
                stroke-width="2"
                d="m41.9 39.1-1.9 14-1.7 14.3L36.8 82l-1.4 14.7-1.2 14.7-1 14.8-.7 14.6-.5 14.4-.3 14.2.1 14 .5 13.7.9 13.4 1.2 13 1.7 12.7 2.1 12.4 2.5 12.1 2.8 11.7 3.2 11.3 3.4 10.9 3.7 10.6 3.8 10 4 9.5 4.1 8.9 4.1 8.2 4.1 7.4 4.1 6.5 4.1 5.5m-.1-.7 4.5-1.1 4.4-2.4 4.3-3.5 4.1-4.6 4.1-5.5 4.1-6.3 3.9-7.1 4-7.9 4-8.4 4-9 4.1-9.5 4.2-10 4.3-10.3 4.3-10.7 4.5-10.9 4.6-11.2 4.7-11.4 4.7-11.5 4.8-11.6 4.9-11.7 4.8-11.6 4.9-11.4 4.8-11.3 4.8-11 4.7-10.6 4.6-10.1 4.6-9.6m-2.8-1.9 4.9 8.9 4.9 9.7 5 10.3 4.9 10.9 4.9 11.4 4.8 11.7 4.8 12.1 4.5 12.3 4.5 12.4 4.3 12.4 4.2 12.2 4 12 4 11.7 3.9 11.3 3.8 10.7 3.9 10.2 4 9.5 4 8.8 4.2 8.1 4.2 7.2 4.5 6.4 4.6 5.6 4.7 4.6 4.8 3.8 5 2.7 5 1.7 5.1.6m-.8 4.4 3.9-1 3.8-2.7 3.7-4.2 3.6-5.6 3.5-7 3.4-8.3 3.3-9.4 3.3-10.4 3.1-11.3 3-12.1 2.9-12.8 2.7-13.3 2.4-13.9 2.2-14.3 1.8-14.6 1.6-14.9 1.1-15.1.8-15.2.4-15.3v-15.3l-.4-15.3-.8-15.3-1.2-15-1.6-14.9-2-14.6-2.3-14.2-2.6-13.8m-.6-3.4 4.1.5 4.1.9 3.9 1.2 4 1.5 3.8 1.7 3.7 1.9 3.6 2 3.5 2.2 3.4 2.2 3.1 2.3 3 2.4 2.7 2.4 2.5 2.5 2.2 2.5 1.9 2.5 1.7 2.5 1.3 2.5 1 2.6.8 2.6.4 2.7.1 2.6-.1 2.7-.4 2.7-.6 2.6-.9 2.7-1.1 2.6-1.2 2.5m1.1-.9-1.7 19.8-1.9 19.2-2 18.6-2.2 18.1-2.4 17.4-2.6 16.8-2.7 16.1-3 15.4-3.2 14.7-3.4 13.8-3.6 13.1-3.6 12.2-3.8 11.3-3.9 10.4-4 9.6-3.9 8.7-3.9 7.9-3.9 7-3.8 6.2-3.8 5.4-3.7 4.7-3.7 4-3.7 3.2-3.6 2.5-3.7 1.9-3.7 1.2-3.8.6m-2.2 3.9-4.8-.9-4.5-2-4.4-3-4.3-3.9-4.1-4.6-4-5.3-3.8-5.8-3.7-6.3-3.6-6.5-3.5-6.8-3.4-6.8-3.4-6.8-3.5-6.7-3.4-6.4-3.5-6.2-3.6-5.7-3.7-5.3-3.8-4.8-3.9-4.1-4.1-3.4-4.2-2.7-4.4-1.8-4.5-.8-4.6.1-4.8 1.2-4.8 2.4-5 3.7m2.3-1.3-4.4 4.2-4.4 4.3-4.6 4.4-4.8 4.5-4.8 4.6-5 4.7-5 4.7-5.2 4.8-5.2 4.8-5.3 4.7-5.3 4.8-5.3 4.7-5.3 4.7-5.3 4.6-5.3 4.4-5.3 4.3-5.1 4.1-5.1 3.9-5 3.6-4.9 3.3-4.8 3-4.8 2.7-4.6 2.2-4.5 1.9-4.4 1.3-4.3.9-4.2.3m0 .4-4.7-.5-4.7-1.4-4.5-2.3-4.3-3.1-4.2-4-4.1-4.8-3.8-5.6-3.6-6.4-3.5-7.1-3.2-8-3-8.6-2.8-9.3-2.6-10.1-2.4-10.7-2.2-11.3-2-12.1L22 264l-1.7-13.3-1.5-14-1.4-14.6-1.2-15.3-1.1-15.9-.9-16.5-.8-17.2-.7-17.9-.5-18.6-.3-19.3m-.4 0 .4-4.7.5-4.6.6-4.5.7-4.3.8-4.2.9-3.9.9-3.7 1-3.4 1.1-3.2 1.1-3 1.1-2.7 1.3-2.4 1.3-2.2 1.3-2 1.4-1.7 1.5-1.5 1.5-1.4 1.6-1.1 1.5-1 1.5-.9 1.5-.8 1.4-.7 1.2-.6 1.2-.5.9-.4.7-.3.5-.3Z" />
            </g>
        </svg>

