
    <svg xmlns="http://www.w3.org/2000/svg" width="200" height="100" viewBox="0 0 200 250">

    <defs>
        <linearGradient id="grad1" x1="0%" y1="0%" x2="100%" y2="100%">
            <stop offset="0%" style="stop-color:#d8b4fe;stop-opacity:1" />
            <stop offset="50%" style="stop-color:#2563eb;stop-opacity:1" />
            <stop offset="100%" style="stop-color:#9333ea;stop-opacity:1" />
        </linearGradient>
    </defs>


    <g transform="skewX(-10) translate(-100, 20) scale(0.5)">
        <path
            fill="url(#grad1)"
            stroke="#00f"
            stroke-width="2"
            d="m41.9 39.1-1.9 14-1.7 14.3L36.8 82l-1.4 14.7-1.2 14.7-1 14.8-.7 14.6-.5 14.4-.3 14.2.1 14 .5 13.7.9 13.4 1.2 13 1.7 12.7 2.1 12.4 2.5 12.1 2.8 11.7 3.2 11.3 3.4 10.9 3.7 10.6 3.8 10 4 9.5 4.1 8.9 4.1 8.2 4.1 7.4 4.1 6.5 4.1 5.5m-.1-.7 4.5-1.1 4.4-2.4 4.3-3.5 4.1-4.6 4.1-5.5 4.1-6.3 3.9-7.1 4-7.9 4-8.4 4-9 4.1-9.5 4.2-10 4.3-10.3 4.3-10.7 4.5-10.9 4.6-11.2 4.7-11.4 4.7-11.5 4.8-11.6 4.9-11.7 4.8-11.6 4.9-11.4 4.8-11.3 4.8-11 4.7-10.6 4.6-10.1 4.6-9.6m-2.8-1.9 4.9 8.9 4.9 9.7 5 10.3 4.9 10.9 4.9 11.4 4.8 11.7 4.8 12.1 4.5 12.3 4.5 12.4 4.3 12.4 4.2 12.2 4 12 4 11.7 3.9 11.3 3.8 10.7 3.9 10.2 4 9.5 4 8.8 4.2 8.1 4.2 7.2 4.5 6.4 4.6 5.6 4.7 4.6 4.8 3.8 5 2.7 5 1.7 5.1.6m-.8 4.4 3.9-1 3.8-2.7 3.7-4.2 3.6-5.6 3.5-7 3.4-8.3 3.3-9.4 3.3-10.4 3.1-11.3 3-12.1 2.9-12.8 2.7-13.3 2.4-13.9 2.2-14.3 1.8-14.6 1.6-14.9 1.1-15.1.8-15.2.4-15.3v-15.3l-.4-15.3-.8-15.3-1.2-15-1.6-14.9-2-14.6-2.3-14.2-2.6-13.8m-.6-3.4 4.1.5 4.1.9 3.9 1.2 4 1.5 3.8 1.7 3.7 1.9 3.6 2 3.5 2.2 3.4 2.2 3.1 2.3 3 2.4 2.7 2.4 2.5 2.5 2.2 2.5 1.9 2.5 1.7 2.5 1.3 2.5 1 2.6.8 2.6.4 2.7.1 2.6-.1 2.7-.4 2.7-.6 2.6-.9 2.7-1.1 2.6-1.2 2.5m1.1-.9-1.7 19.8-1.9 19.2-2 18.6-2.2 18.1-2.4 17.4-2.6 16.8-2.7 16.1-3 15.4-3.2 14.7-3.4 13.8-3.6 13.1-3.6 12.2-3.8 11.3-3.9 10.4-4 9.6-3.9 8.7-3.9 7.9-3.9 7-3.8 6.2-3.8 5.4-3.7 4.7-3.7 4-3.7 3.2-3.6 2.5-3.7 1.9-3.7 1.2-3.8.6m-2.2 3.9-4.8-.9-4.5-2-4.4-3-4.3-3.9-4.1-4.6-4-5.3-3.8-5.8-3.7-6.3-3.6-6.5-3.5-6.8-3.4-6.8-3.4-6.8-3.5-6.7-3.4-6.4-3.5-6.2-3.6-5.7-3.7-5.3-3.8-4.8-3.9-4.1-4.1-3.4-4.2-2.7-4.4-1.8-4.5-.8-4.6.1-4.8 1.2-4.8 2.4-5 3.7m2.3-1.3-4.4 4.2-4.4 4.3-4.6 4.4-4.8 4.5-4.8 4.6-5 4.7-5 4.7-5.2 4.8-5.2 4.8-5.3 4.7-5.3 4.8-5.3 4.7-5.3 4.7-5.3 4.6-5.3 4.4-5.3 4.3-5.1 4.1-5.1 3.9-5 3.6-4.9 3.3-4.8 3-4.8 2.7-4.6 2.2-4.5 1.9-4.4 1.3-4.3.9-4.2.3m0 .4-4.7-.5-4.7-1.4-4.5-2.3-4.3-3.1-4.2-4-4.1-4.8-3.8-5.6-3.6-6.4-3.5-7.1-3.2-8-3-8.6-2.8-9.3-2.6-10.1-2.4-10.7-2.2-11.3-2-12.1L22 264l-1.7-13.3-1.5-14-1.4-14.6-1.2-15.3-1.1-15.9-.9-16.5-.8-17.2-.7-17.9-.5-18.6-.3-19.3m-.4 0 .4-4.7.5-4.6.6-4.5.7-4.3.8-4.2.9-3.9.9-3.7 1-3.4 1.1-3.2 1.1-3 1.1-2.7 1.3-2.4 1.3-2.2 1.3-2 1.4-1.7 1.5-1.5 1.5-1.4 1.6-1.1 1.5-1 1.5-.9 1.5-.8 1.4-.7 1.2-.6 1.2-.5.9-.4.7-.3.5-.3Z" />
    </g>
    <g width="45" height="9" transform="translate(60, 150) scale(6)" viewBox="0 0 45 9"
       stroke="#0000FF" stroke-width="0.3" fill="#22d3ee"
       xmlns="http://www.w3.org/2000/svg" style="filter:url(#textShadow);">

        <defs>
            <filter id="textShadow">
                <feDropShadow dx="0.1" dy="0.1" stdDeviation="0.1" flood-color="#000000" flood-opacity="0.8"/>
            </filter>
        </defs>

        <path d="M43.3568 8.97601C42.7168 8.97601 42.1248 8.87201 41.5808 8.66401C41.0448 8.44801 40.5768 8.14801 40.1768 7.76401C39.7848 7.38001 39.4768 6.92801 39.2528 6.40801C39.0368 5.88801 38.9288 5.32001 38.9288 4.70401C38.9288 4.08801 39.0368 3.52001 39.2528 3.00001C39.4768 2.48001 39.7888 2.02801 40.1888 1.64401C40.5888 1.26001 41.0568 0.964007 41.5928 0.756007C42.1368 0.540007 42.7288 0.432007 43.3688 0.432007C44.0088 0.432007 44.5928 0.532007 45.1208 0.732007C45.6568 0.932007 46.1128 1.23601 46.4888 1.64401L45.9368 2.20801C45.5848 1.85601 45.1968 1.60401 44.7728 1.45201C44.3488 1.30001 43.8928 1.22401 43.4048 1.22401C42.8848 1.22401 42.4048 1.31201 41.9648 1.48801C41.5328 1.65601 41.1528 1.90001 40.8248 2.22001C40.5048 2.53201 40.2528 2.90001 40.0688 3.32401C39.8928 3.74001 39.8048 4.20001 39.8048 4.70401C39.8048 5.20001 39.8928 5.66001 40.0688 6.08401C40.2528 6.50801 40.5048 6.88001 40.8248 7.20001C41.1528 7.51201 41.5328 7.75601 41.9648 7.93201C42.4048 8.10001 42.8808 8.18401 43.3928 8.18401C43.8728 8.18401 44.3248 8.11201 44.7488 7.96801C45.1808 7.82401 45.5768 7.58001 45.9368 7.23601L46.4408 7.90801C46.0408 8.26001 45.5728 8.52801 45.0368 8.71201C44.5008 8.88801 43.9408 8.97601 43.3568 8.97601ZM45.5888 7.80001V4.70401H46.4408V7.90801L45.5888 7.80001Z" />
        <path d="M33.928 8.90401L30.208 0.504013H31.168L34.648 8.41201H34.12L37.624 0.504013H38.524L34.804 8.90401H33.928Z" />
        <path d="M26.4732 8.97601C25.8492 8.97601 25.2492 8.87601 24.6732 8.67601C24.1052 8.46801 23.6652 8.20401 23.3532 7.88401L23.7012 7.20001C23.9972 7.48801 24.3932 7.73201 24.8892 7.93201C25.3932 8.12401 25.9212 8.22001 26.4732 8.22001C27.0012 8.22001 27.4292 8.15601 27.7572 8.02801C28.0932 7.89201 28.3372 7.71201 28.4892 7.48801C28.6492 7.26401 28.7292 7.01601 28.7292 6.74401C28.7292 6.41601 28.6332 6.15201 28.4412 5.95201C28.2572 5.75201 28.0132 5.59601 27.7092 5.48401C27.4052 5.36401 27.0692 5.26001 26.7012 5.17201C26.3332 5.08401 25.9652 4.99201 25.5972 4.89601C25.2292 4.79201 24.8892 4.65601 24.5772 4.48801C24.2732 4.32001 24.0252 4.10001 23.8332 3.82801C23.6492 3.54801 23.5572 3.18401 23.5572 2.73601C23.5572 2.32001 23.6652 1.94001 23.8812 1.59601C24.1052 1.24401 24.4452 0.964007 24.9012 0.756007C25.3572 0.540007 25.9412 0.432007 26.6532 0.432007C27.1252 0.432007 27.5932 0.500007 28.0572 0.636007C28.5212 0.764007 28.9212 0.944007 29.2572 1.17601L28.9572 1.88401C28.5972 1.64401 28.2132 1.46801 27.8052 1.35601C27.4052 1.24401 27.0172 1.18801 26.6412 1.18801C26.1372 1.18801 25.7212 1.25601 25.3932 1.39201C25.0652 1.52801 24.8212 1.71201 24.6612 1.94401C24.5092 2.16801 24.4332 2.42401 24.4332 2.71201C24.4332 3.04001 24.5252 3.30401 24.7092 3.50401C24.9012 3.70401 25.1492 3.86001 25.4532 3.97201C25.7652 4.08401 26.1052 4.18401 26.4732 4.27201C26.8412 4.36001 27.2052 4.45601 27.5652 4.56001C27.9332 4.66401 28.2692 4.80001 28.5732 4.96801C28.8852 5.12801 29.1332 5.34401 29.3172 5.61601C29.5092 5.88801 29.6052 6.24401 29.6052 6.68401C29.6052 7.09201 29.4932 7.47201 29.2692 7.82401C29.0452 8.16801 28.7012 8.44801 28.2372 8.66401C27.7812 8.87201 27.1932 8.97601 26.4732 8.97601Z" />
        <path d="M19.8315 8.96401C19.2075 8.96401 18.6475 8.82801 18.1515 8.55601C17.6635 8.27601 17.2795 7.89601 16.9995 7.41601C16.7195 6.92801 16.5795 6.37201 16.5795 5.74801C16.5795 5.11601 16.7195 4.56001 16.9995 4.08001C17.2795 3.60001 17.6635 3.22401 18.1515 2.95201C18.6475 2.68001 19.2075 2.54401 19.8315 2.54401C20.3675 2.54401 20.8515 2.64801 21.2835 2.85601C21.7155 3.06401 22.0555 3.37601 22.3035 3.79201L21.6675 4.22401C21.4515 3.90401 21.1835 3.66801 20.8635 3.51601C20.5435 3.36401 20.1955 3.28801 19.8195 3.28801C19.3715 3.28801 18.9675 3.39201 18.6075 3.60001C18.2475 3.80001 17.9635 4.08401 17.7555 4.45201C17.5475 4.82001 17.4435 5.25201 17.4435 5.74801C17.4435 6.24401 17.5475 6.67601 17.7555 7.04401C17.9635 7.41201 18.2475 7.70001 18.6075 7.90801C18.9675 8.10801 19.3715 8.20801 19.8195 8.20801C20.1955 8.20801 20.5435 8.13201 20.8635 7.98001C21.1835 7.82801 21.4515 7.59601 21.6675 7.28401L22.3035 7.71601C22.0555 8.12401 21.7155 8.43601 21.2835 8.65201C20.8515 8.86001 20.3675 8.96401 19.8315 8.96401Z" />
        <path d="M13.9928 8.904V2.604H14.8448V8.904H13.9928ZM14.4248 1.212C14.2488 1.212 14.1008 1.152 13.9808 1.032C13.8608 0.912 13.8008 0.768 13.8008 0.6C13.8008 0.432 13.8608 0.292 13.9808 0.18C14.1008 0.0599999 14.2488 0 14.4248 0C14.6008 0 14.7488 0.056 14.8688 0.168C14.9888 0.28 15.0488 0.42 15.0488 0.588C15.0488 0.764 14.9888 0.912 14.8688 1.032C14.7568 1.152 14.6088 1.212 14.4248 1.212Z" />
        <path d="M9.10893 8.904L6.31293 2.604H7.20093L9.76893 8.448H9.34893L11.9529 2.604H12.7929L9.98493 8.904H9.10893Z" />
        <path d="M4.476 8.90401V7.51201L4.44 7.28401V4.95601C4.44 4.42001 4.288 4.00801 3.984 3.72001C3.688 3.43201 3.244 3.28801 2.652 3.28801C2.244 3.28801 1.856 3.35601 1.488 3.49201C1.12 3.62801 0.808 3.80801 0.552 4.03201L0.168 3.39601C0.488 3.12401 0.872 2.91601 1.32 2.77201C1.768 2.62001 2.24 2.54401 2.736 2.54401C3.552 2.54401 4.18 2.74801 4.62 3.15601C5.068 3.55601 5.292 4.16801 5.292 4.99201V8.90401H4.476ZM2.304 8.96401C1.832 8.96401 1.42 8.88801 1.068 8.73601C0.724 8.57601 0.46 8.36001 0.276 8.08801C0.092 7.80801 0 7.48801 0 7.12801C0 6.80001 0.076 6.50401 0.228 6.24001C0.388 5.96801 0.644 5.75201 0.996 5.59201C1.356 5.42401 1.836 5.34001 2.436 5.34001H4.608V5.97601H2.46C1.852 5.97601 1.428 6.08401 1.188 6.30001C0.956 6.51601 0.84 6.78401 0.84 7.10401C0.84 7.46401 0.98 7.75201 1.26 7.96801C1.54 8.18401 1.932 8.29201 2.436 8.29201C2.916 8.29201 3.328 8.18401 3.672 7.96801C4.024 7.74401 4.28 7.42401 4.44 7.00801L4.632 7.59601C4.472 8.01201 4.192 8.34401 3.792 8.59201C3.4 8.84001 2.904 8.96401 2.304 8.96401Z" />
    </g>
    </svg>

